<svg width="34" height="34" viewBox="0 0 34 34" fill="none" xmlns="http://www.w3.org/2000/svg">
<path d="M10.4328 0H24.3741C29.685 0 34.0002 4.31516 34.0002 9.62613V23.5674C34.0002 26.1204 32.986 28.5689 31.1808 30.3741C29.3755 32.1794 26.9271 33.1936 24.3741 33.1936H10.4328C5.1218 33.1936 0.806641 28.8784 0.806641 23.5674V9.62613C0.806641 7.07312 1.82082 4.62468 3.62607 2.81943C5.43132 1.01418 7.87976 0 10.4328 0ZM10.1008 3.31936C8.51621 3.31936 6.99649 3.94885 5.87599 5.06934C4.75549 6.18984 4.126 7.70957 4.126 9.29419V23.8994C4.126 27.2021 6.79808 29.8742 10.1008 29.8742H24.706C26.2906 29.8742 27.8103 29.2447 28.9308 28.1242C30.0513 27.0037 30.6808 25.484 30.6808 23.8994V9.29419C30.6808 5.99144 28.0088 3.31936 24.706 3.31936H10.1008ZM26.1167 5.80887C26.6669 5.80887 27.1946 6.02744 27.5837 6.41651C27.9727 6.80557 28.1913 7.33325 28.1913 7.88347C28.1913 8.43369 27.9727 8.96137 27.5837 9.35043C27.1946 9.73949 26.6669 9.95807 26.1167 9.95807C25.5665 9.95807 25.0388 9.73949 24.6498 9.35043C24.2607 8.96137 24.0421 8.43369 24.0421 7.88347C24.0421 7.33325 24.2607 6.80557 24.6498 6.41651C25.0388 6.02744 25.5665 5.80887 26.1167 5.80887ZM17.4034 8.29839C19.6043 8.29839 21.715 9.17268 23.2713 10.7289C24.8275 12.2852 25.7018 14.3959 25.7018 16.5968C25.7018 18.7976 24.8275 20.9084 23.2713 22.4646C21.715 24.0209 19.6043 24.8952 17.4034 24.8952C15.2025 24.8952 13.0918 24.0209 11.5356 22.4646C9.97932 20.9084 9.10503 18.7976 9.10503 16.5968C9.10503 14.3959 9.97932 12.2852 11.5356 10.7289C13.0918 9.17268 15.2025 8.29839 17.4034 8.29839ZM17.4034 11.6177C16.0829 11.6177 14.8165 12.1423 13.8827 13.0761C12.949 14.0098 12.4244 15.2763 12.4244 16.5968C12.4244 17.9173 12.949 19.1837 13.8827 20.1175C14.8165 21.0512 16.0829 21.5758 17.4034 21.5758C18.7239 21.5758 19.9904 21.0512 20.9241 20.1175C21.8579 19.1837 22.3824 17.9173 22.3824 16.5968C22.3824 15.2763 21.8579 14.0098 20.9241 13.0761C19.9904 12.1423 18.7239 11.6177 17.4034 11.6177Z" fill="white"/>
<path d="M10.4328 0H24.3741C29.685 0 34.0002 4.31516 34.0002 9.62613V23.5674C34.0002 26.1204 32.986 28.5689 31.1808 30.3741C29.3755 32.1794 26.9271 33.1936 24.3741 33.1936H10.4328C5.1218 33.1936 0.806641 28.8784 0.806641 23.5674V9.62613C0.806641 7.07312 1.82082 4.62468 3.62607 2.81943C5.43132 1.01418 7.87976 0 10.4328 0ZM10.1008 3.31936C8.51621 3.31936 6.99649 3.94885 5.87599 5.06934C4.75549 6.18984 4.126 7.70957 4.126 9.29419V23.8994C4.126 27.2021 6.79808 29.8742 10.1008 29.8742H24.706C26.2906 29.8742 27.8103 29.2447 28.9308 28.1242C30.0513 27.0037 30.6808 25.484 30.6808 23.8994V9.29419C30.6808 5.99144 28.0088 3.31936 24.706 3.31936H10.1008ZM26.1167 5.80887C26.6669 5.80887 27.1946 6.02744 27.5837 6.41651C27.9727 6.80557 28.1913 7.33325 28.1913 7.88347C28.1913 8.43369 27.9727 8.96137 27.5837 9.35043C27.1946 9.73949 26.6669 9.95807 26.1167 9.95807C25.5665 9.95807 25.0388 9.73949 24.6498 9.35043C24.2607 8.96137 24.0421 8.43369 24.0421 7.88347C24.0421 7.33325 24.2607 6.80557 24.6498 6.41651C25.0388 6.02744 25.5665 5.80887 26.1167 5.80887ZM17.4034 8.29839C19.6043 8.29839 21.715 9.17268 23.2713 10.7289C24.8275 12.2852 25.7018 14.3959 25.7018 16.5968C25.7018 18.7976 24.8275 20.9084 23.2713 22.4646C21.715 24.0209 19.6043 24.8952 17.4034 24.8952C15.2025 24.8952 13.0918 24.0209 11.5356 22.4646C9.97932 20.9084 9.10503 18.7976 9.10503 16.5968C9.10503 14.3959 9.97932 12.2852 11.5356 10.7289C13.0918 9.17268 15.2025 8.29839 17.4034 8.29839ZM17.4034 11.6177C16.0829 11.6177 14.8165 12.1423 13.8827 13.0761C12.949 14.0098 12.4244 15.2763 12.4244 16.5968C12.4244 17.9173 12.949 19.1837 13.8827 20.1175C14.8165 21.0512 16.0829 21.5758 17.4034 21.5758C18.7239 21.5758 19.9904 21.0512 20.9241 20.1175C21.8579 19.1837 22.3824 17.9173 22.3824 16.5968C22.3824 15.2763 21.8579 14.0098 20.9241 13.0761C19.9904 12.1423 18.7239 11.6177 17.4034 11.6177Z" fill="#FFCC80"/>
</svg>
