<svg width="13" height="11" viewBox="0 0 13 11" fill="none" xmlns="http://www.w3.org/2000/svg">
<path d="M13 3.29525V8.58755C13 9.12714 12.7936 9.64629 12.423 10.0385C12.0524 10.4307 11.5458 10.6662 11.0071 10.6968L10.8875 10.7H2.1125C1.57291 10.7001 1.05376 10.4936 0.66155 10.1231C0.269338 9.75248 0.0337991 9.24587 0.00325007 8.70715L0 8.58755V3.29525L6.2738 6.58165C6.34359 6.61821 6.42121 6.6373 6.5 6.6373C6.57879 6.6373 6.6564 6.61821 6.7262 6.58165L13 3.29525ZM2.1125 0.300049H10.8875C11.4111 0.299986 11.9161 0.494396 12.3045 0.845573C12.6929 1.19675 12.9371 1.67966 12.9896 2.20065L6.5 5.60015L0.0104 2.20065C0.0607902 1.70035 0.287982 1.23443 0.651137 0.88665C1.01429 0.538864 1.48959 0.33202 1.9916 0.303299L2.1125 0.300049Z" fill="black"/>
<path d="M13 3.29525V8.58755C13 9.12714 12.7936 9.64629 12.423 10.0385C12.0524 10.4307 11.5458 10.6662 11.0071 10.6968L10.8875 10.7H2.1125C1.57291 10.7001 1.05376 10.4936 0.66155 10.1231C0.269338 9.75248 0.0337991 9.24587 0.00325007 8.70715L0 8.58755V3.29525L6.2738 6.58165C6.34359 6.61821 6.42121 6.6373 6.5 6.6373C6.57879 6.6373 6.6564 6.61821 6.7262 6.58165L13 3.29525ZM2.1125 0.300049H10.8875C11.4111 0.299986 11.9161 0.494396 12.3045 0.845573C12.6929 1.19675 12.9371 1.67966 12.9896 2.20065L6.5 5.60015L0.0104 2.20065C0.0607902 1.70035 0.287982 1.23443 0.651137 0.88665C1.01429 0.538864 1.48959 0.33202 1.9916 0.303299L2.1125 0.300049Z" fill="#FFC718"/>
</svg>
