<svg width="14" height="14" viewBox="0 0 14 14" fill="none" xmlns="http://www.w3.org/2000/svg">
<path fill-rule="evenodd" clip-rule="evenodd" d="M10.3018 14.0052C9.29184 13.968 6.42947 13.5725 3.43172 10.5754C0.434681 7.57768 0.0397983 4.716 0.00192321 3.7053C-0.054188 2.16505 1.12555 0.668981 2.48835 0.0847225C2.65246 0.0138588 2.83217 -0.0131211 3.00986 0.00643012C3.18754 0.0259814 3.35709 0.091392 3.50186 0.196244C4.62409 1.01406 5.39842 2.25132 6.06334 3.22415C6.20964 3.43788 6.27219 3.69797 6.23908 3.95485C6.20596 4.21174 6.0795 4.44746 5.88378 4.61711L4.51537 5.63342C4.44926 5.68116 4.40272 5.75128 4.3844 5.83074C4.36609 5.9102 4.37723 5.99361 4.41577 6.06548C4.72579 6.6287 5.27708 7.46756 5.90833 8.09881C6.54029 8.73006 7.41843 9.31783 8.02092 9.66291C8.09646 9.70532 8.18538 9.71717 8.26939 9.69604C8.35341 9.6749 8.42613 9.62239 8.47262 9.54928L9.36338 8.1935C9.52715 7.97596 9.76873 7.83023 10.0375 7.78682C10.3064 7.74341 10.5815 7.8057 10.8054 7.96064C11.7923 8.64379 12.944 9.4048 13.7871 10.4842C13.9004 10.6301 13.9725 10.8037 13.9958 10.9869C14.0192 11.1701 13.9928 11.3562 13.9196 11.5258C13.3325 12.8956 11.847 14.062 10.3018 14.0052Z" fill="black"/>
<path fill-rule="evenodd" clip-rule="evenodd" d="M10.3018 14.0052C9.29184 13.968 6.42947 13.5725 3.43172 10.5754C0.434681 7.57768 0.0397983 4.716 0.00192321 3.7053C-0.054188 2.16505 1.12555 0.668981 2.48835 0.0847225C2.65246 0.0138588 2.83217 -0.0131211 3.00986 0.00643012C3.18754 0.0259814 3.35709 0.091392 3.50186 0.196244C4.62409 1.01406 5.39842 2.25132 6.06334 3.22415C6.20964 3.43788 6.27219 3.69797 6.23908 3.95485C6.20596 4.21174 6.0795 4.44746 5.88378 4.61711L4.51537 5.63342C4.44926 5.68116 4.40272 5.75128 4.3844 5.83074C4.36609 5.9102 4.37723 5.99361 4.41577 6.06548C4.72579 6.6287 5.27708 7.46756 5.90833 8.09881C6.54029 8.73006 7.41843 9.31783 8.02092 9.66291C8.09646 9.70532 8.18538 9.71717 8.26939 9.69604C8.35341 9.6749 8.42613 9.62239 8.47262 9.54928L9.36338 8.1935C9.52715 7.97596 9.76873 7.83023 10.0375 7.78682C10.3064 7.74341 10.5815 7.8057 10.8054 7.96064C11.7923 8.64379 12.944 9.4048 13.7871 10.4842C13.9004 10.6301 13.9725 10.8037 13.9958 10.9869C14.0192 11.1701 13.9928 11.3562 13.9196 11.5258C13.3325 12.8956 11.847 14.062 10.3018 14.0052Z" fill="#FFC718"/>
</svg>
