<svg width="35" height="34" viewBox="0 0 35 34" fill="none" xmlns="http://www.w3.org/2000/svg">
<path d="M0.90332 17.6356V15.5574C0.943152 15.2492 0.989911 14.94 1.02281 14.6318C1.48694 10.8217 3.05075 7.51307 5.80257 4.84691C10.0827 0.698307 15.2106 -0.794533 21.051 0.396967C28.4856 1.91492 34.0161 8.70284 34.0958 16.2857C34.1322 19.7285 33.2524 22.9117 31.3249 25.7683C28.6868 29.6707 25.0437 32.0592 20.3955 32.9338C19.7825 33.0481 19.159 33.107 18.5408 33.1936H16.4626C16.392 33.1707 16.3196 33.1536 16.2462 33.1425C13.3671 32.9242 10.7105 32.0367 8.32233 30.4148C4.42579 27.7703 2.02552 24.1283 1.16136 19.4904C1.04706 18.8765 0.98991 18.2539 0.90332 17.6356ZM22.6036 12.8151C22.4486 12.9718 22.33 13.1052 22.1983 13.2238C19.7946 15.3972 17.3886 17.5687 14.9802 19.7381C14.8938 19.8082 14.8242 19.8967 14.7765 19.9973C14.7289 20.0979 14.7044 20.2078 14.7049 20.3191C14.6927 20.7936 14.6417 21.2664 14.6096 21.7409C14.5542 22.5471 14.5005 23.3524 14.4451 24.1655C14.7854 24.1958 15.0088 24.0373 15.2149 23.8391L17.2688 21.8587C17.3554 21.915 17.4247 21.96 17.4931 22.0111C18.7371 22.9267 19.9805 23.8425 21.2233 24.7587C22.1118 25.409 22.724 25.1786 22.9474 24.1101C23.5691 21.1879 24.1911 18.2652 24.8134 15.3418C25.0913 14.0334 25.3753 12.7259 25.6412 11.4149C25.7277 10.9819 25.7936 10.5152 25.4013 10.1766C25.0091 9.83805 24.6107 10.0286 24.2124 10.1827C20.2587 11.7067 16.3048 13.2319 12.3505 14.7582C10.9919 15.2777 9.63244 15.8034 8.28077 16.3437C7.9829 16.4623 7.64001 16.6329 7.67464 17.0174C7.70668 17.3828 8.06343 17.4763 8.36217 17.5707C9.60646 17.9647 10.8542 18.344 12.0968 18.744C12.1958 18.781 12.3023 18.7929 12.407 18.7787C12.5117 18.7645 12.6113 18.7246 12.6969 18.6626C14.8576 17.2927 17.0223 15.928 19.1911 14.5686C20.0864 14.0046 20.9812 13.4414 21.8754 12.8792C22.0719 12.7545 22.278 12.6211 22.6036 12.8151Z" fill="white"/>
<path d="M0.90332 17.6356V15.5574C0.943152 15.2492 0.989911 14.94 1.02281 14.6318C1.48694 10.8217 3.05075 7.51307 5.80257 4.84691C10.0827 0.698307 15.2106 -0.794533 21.051 0.396967C28.4856 1.91492 34.0161 8.70284 34.0958 16.2857C34.1322 19.7285 33.2524 22.9117 31.3249 25.7683C28.6868 29.6707 25.0437 32.0592 20.3955 32.9338C19.7825 33.0481 19.159 33.107 18.5408 33.1936H16.4626C16.392 33.1707 16.3196 33.1536 16.2462 33.1425C13.3671 32.9242 10.7105 32.0367 8.32233 30.4148C4.42579 27.7703 2.02552 24.1283 1.16136 19.4904C1.04706 18.8765 0.98991 18.2539 0.90332 17.6356ZM22.6036 12.8151C22.4486 12.9718 22.33 13.1052 22.1983 13.2238C19.7946 15.3972 17.3886 17.5687 14.9802 19.7381C14.8938 19.8082 14.8242 19.8967 14.7765 19.9973C14.7289 20.0979 14.7044 20.2078 14.7049 20.3191C14.6927 20.7936 14.6417 21.2664 14.6096 21.7409C14.5542 22.5471 14.5005 23.3524 14.4451 24.1655C14.7854 24.1958 15.0088 24.0373 15.2149 23.8391L17.2688 21.8587C17.3554 21.915 17.4247 21.96 17.4931 22.0111C18.7371 22.9267 19.9805 23.8425 21.2233 24.7587C22.1118 25.409 22.724 25.1786 22.9474 24.1101C23.5691 21.1879 24.1911 18.2652 24.8134 15.3418C25.0913 14.0334 25.3753 12.7259 25.6412 11.4149C25.7277 10.9819 25.7936 10.5152 25.4013 10.1766C25.0091 9.83805 24.6107 10.0286 24.2124 10.1827C20.2587 11.7067 16.3048 13.2319 12.3505 14.7582C10.9919 15.2777 9.63244 15.8034 8.28077 16.3437C7.9829 16.4623 7.64001 16.6329 7.67464 17.0174C7.70668 17.3828 8.06343 17.4763 8.36217 17.5707C9.60646 17.9647 10.8542 18.344 12.0968 18.744C12.1958 18.781 12.3023 18.7929 12.407 18.7787C12.5117 18.7645 12.6113 18.7246 12.6969 18.6626C14.8576 17.2927 17.0223 15.928 19.1911 14.5686C20.0864 14.0046 20.9812 13.4414 21.8754 12.8792C22.0719 12.7545 22.278 12.6211 22.6036 12.8151Z" fill="#FFCC80"/>
</svg>
