<svg width="34" height="34" viewBox="0 0 34 34" fill="none" xmlns="http://www.w3.org/2000/svg">
<path d="M16.5968 0C7.43051 0 0 7.43051 0 16.5968C0 25.763 7.43051 33.1936 16.5968 33.1936C25.763 33.1936 33.1936 25.763 33.1936 16.5968C33.1936 7.43051 25.763 0 16.5968 0ZM22.9796 18.725C22.9796 18.725 24.4474 20.1737 24.8087 20.8462C24.8191 20.8601 24.8243 20.8739 24.8277 20.8808C24.9747 21.128 25.0093 21.3199 24.9367 21.4634C24.8156 21.702 24.4007 21.8196 24.259 21.8299H21.6657C21.4859 21.8299 21.109 21.7833 20.6526 21.4686C20.3017 21.2231 19.9559 20.8203 19.6188 20.4279C19.1157 19.8435 18.68 19.3387 18.2409 19.3387C18.1851 19.3386 18.1297 19.3474 18.0767 19.3646C17.7447 19.4718 17.3194 19.9455 17.3194 21.2076C17.3194 21.6017 17.0082 21.8282 16.7887 21.8282H15.601C15.1964 21.8282 13.089 21.6865 11.2218 19.7173C8.93633 17.3056 6.87902 12.4683 6.86173 12.4234C6.73207 12.1105 7.00004 11.9428 7.29221 11.9428H9.91139C10.2606 11.9428 10.3747 12.1554 10.4542 12.3439C10.5476 12.5634 10.8899 13.4365 11.4518 14.4184C12.3629 16.0193 12.9213 16.6694 13.369 16.6694C13.453 16.6684 13.5355 16.647 13.6094 16.6071C14.1937 16.2821 14.0848 14.1989 14.0589 13.7667C14.0589 13.6854 14.0571 12.8348 13.758 12.4268C13.5437 12.1312 13.1789 12.0188 12.9576 11.9773C13.0472 11.8537 13.1652 11.7535 13.3016 11.6852C13.7027 11.4846 14.4254 11.4552 15.1428 11.4552H15.5422C16.3202 11.4656 16.5207 11.5157 16.8025 11.5866C17.373 11.7232 17.3851 12.0914 17.335 13.3518C17.3194 13.7096 17.3039 14.1142 17.3039 14.5913C17.3039 14.6951 17.2987 14.8057 17.2987 14.9233C17.2814 15.5647 17.2606 16.2925 17.7136 16.5916C17.7727 16.6286 17.841 16.6484 17.9107 16.6486C18.068 16.6486 18.5417 16.6486 19.8245 14.4478C20.2201 13.7395 20.5639 13.0034 20.8532 12.2453C20.8791 12.2004 20.9552 12.0621 21.0451 12.0085C21.1114 11.9746 21.185 11.9574 21.2594 11.9583H24.3385C24.6739 11.9583 24.9038 12.0085 24.947 12.1381C25.0231 12.3439 24.9332 12.9714 23.5277 14.8749L22.9001 15.703C21.6259 17.373 21.6259 17.4577 22.9796 18.725Z" fill="white"/>
<path d="M16.5968 0C7.43051 0 0 7.43051 0 16.5968C0 25.763 7.43051 33.1936 16.5968 33.1936C25.763 33.1936 33.1936 25.763 33.1936 16.5968C33.1936 7.43051 25.763 0 16.5968 0ZM22.9796 18.725C22.9796 18.725 24.4474 20.1737 24.8087 20.8462C24.8191 20.8601 24.8243 20.8739 24.8277 20.8808C24.9747 21.128 25.0093 21.3199 24.9367 21.4634C24.8156 21.702 24.4007 21.8196 24.259 21.8299H21.6657C21.4859 21.8299 21.109 21.7833 20.6526 21.4686C20.3017 21.2231 19.9559 20.8203 19.6188 20.4279C19.1157 19.8435 18.68 19.3387 18.2409 19.3387C18.1851 19.3386 18.1297 19.3474 18.0767 19.3646C17.7447 19.4718 17.3194 19.9455 17.3194 21.2076C17.3194 21.6017 17.0082 21.8282 16.7887 21.8282H15.601C15.1964 21.8282 13.089 21.6865 11.2218 19.7173C8.93633 17.3056 6.87902 12.4683 6.86173 12.4234C6.73207 12.1105 7.00004 11.9428 7.29221 11.9428H9.91139C10.2606 11.9428 10.3747 12.1554 10.4542 12.3439C10.5476 12.5634 10.8899 13.4365 11.4518 14.4184C12.3629 16.0193 12.9213 16.6694 13.369 16.6694C13.453 16.6684 13.5355 16.647 13.6094 16.6071C14.1937 16.2821 14.0848 14.1989 14.0589 13.7667C14.0589 13.6854 14.0571 12.8348 13.758 12.4268C13.5437 12.1312 13.1789 12.0188 12.9576 11.9773C13.0472 11.8537 13.1652 11.7535 13.3016 11.6852C13.7027 11.4846 14.4254 11.4552 15.1428 11.4552H15.5422C16.3202 11.4656 16.5207 11.5157 16.8025 11.5866C17.373 11.7232 17.3851 12.0914 17.335 13.3518C17.3194 13.7096 17.3039 14.1142 17.3039 14.5913C17.3039 14.6951 17.2987 14.8057 17.2987 14.9233C17.2814 15.5647 17.2606 16.2925 17.7136 16.5916C17.7727 16.6286 17.841 16.6484 17.9107 16.6486C18.068 16.6486 18.5417 16.6486 19.8245 14.4478C20.2201 13.7395 20.5639 13.0034 20.8532 12.2453C20.8791 12.2004 20.9552 12.0621 21.0451 12.0085C21.1114 11.9746 21.185 11.9574 21.2594 11.9583H24.3385C24.6739 11.9583 24.9038 12.0085 24.947 12.1381C25.0231 12.3439 24.9332 12.9714 23.5277 14.8749L22.9001 15.703C21.6259 17.373 21.6259 17.4577 22.9796 18.725Z" fill="#FFCC80"/>
</svg>
